<!-- Microsoft Intune product icon sourced from homarr-labs/dashboard-icons (Apache-2.0). -->
<svg xmlns="http://www.w3.org/2000/svg" fill="none" viewBox="0.69 5.4 400 390.62">
  <g clip-path="url(#clip0)">
    <path d="M.685 65.852c0-51.087 66.801-79.055 110.931-46.444l95.935 70.846 80.963-45.881c42.791-23.334 111.36-6.599 112.171 57.186v235.063c0 51.088-64.84 77.721-108.97 45.11l-97.684-72.392-81.058 45.89C69.778 378.784.753 360.714.753 298.637.753 224.124.685 252.734.685 65.852Z" fill="url(#a)"/>
    <path d="M.685 65.852c0-51.087 66.801-79.055 110.931-46.444l95.935 70.846 80.963-45.881c42.791-23.334 111.36-6.599 112.171 57.186v235.063c0 51.088-64.84 77.721-108.97 45.11l-97.684-72.392-81.058 45.89C69.778 378.784.753 360.714.753 298.637.753 224.124.685 252.734.685 65.852Z" fill="url(#b)"/>
    <path d="M.685 65.852c0-51.087 66.801-79.055 110.931-46.444l95.935 70.846 80.963-45.881c42.791-23.334 111.36-6.599 112.171 57.186v235.063c0 51.088-64.84 77.721-108.97 45.11l-97.684-72.392-81.058 45.89C69.778 378.784.753 360.714.753 298.637.753 224.124.685 252.734.685 65.852Z" fill="url(#c)"/>
    <path d="M111.616 19.408C67.486-13.203.685 14.765.685 65.852v229.89c0-5.589 2.848-16.716 2.848-16.716 13.162-43.025 69.116-59.157 107.827-30.803l180.355 133.509c44.13 32.611 108.97 5.978 108.97-45.11V101.559c0 43.642-57.042 87.452-110.93 49.492L111.615 19.408Z" fill="url(#d)"/>
    <path d="M111.616 19.408C67.486-13.203.685 14.765.685 65.852v229.89c0-5.589 2.848-16.716 2.848-16.716 13.162-43.025 69.116-59.157 107.827-30.803l180.355 133.509c44.13 32.611 108.97 5.978 108.97-45.11V101.559c0 43.642-57.042 87.452-110.93 49.492L111.615 19.408Z" fill="url(#e)" fill-opacity=".25"/>
    <path d="M111.616 19.408C67.486-13.203.685 14.765.685 65.852v229.89c0-5.589 2.848-16.716 2.848-16.716 13.162-43.025 69.116-59.157 107.827-30.803l180.355 133.509c44.13 32.611 108.97 5.978 108.97-45.11V101.559c0 43.642-57.042 87.452-110.93 49.492L111.615 19.408Z" fill="url(#f)" fill-opacity=".55"/>
    <path d="M111.616 149.691C67.486 117.08.685 145.048.685 196.135V65.852c0-51.087 66.801-79.055 110.931-46.444l178.139 131.643c53.888 37.96 110.93-5.85 110.93-49.492V234.89c0 51.088-66.8 79.056-110.93 46.444L111.615 149.691Z" fill="url(#g)"/>
    <path d="M111.616 149.691C67.486 117.08.685 145.048.685 196.135V65.852c0-51.087 66.801-79.055 110.931-46.444l178.139 131.643c53.888 37.96 110.93-5.85 110.93-49.492V234.89c0 51.088-66.8 79.056-110.93 46.444L111.615 149.691Z" fill="url(#h)" fill-opacity=".35"/>
  </g>
  <defs>
    <linearGradient id="a" x1="171.501" y1="396.026" x2="314.256" y2="90.565" gradientUnits="userSpaceOnUse"><stop offset=".02" stop-color="#1169DA"/><stop offset=".435" stop-color="#0151BD"/><stop offset=".614" stop-color="#014DB7"/><stop offset="1" stop-color="#126AD9"/></linearGradient>
    <radialGradient id="b" cx="0" cy="0" r="1" gradientUnits="userSpaceOnUse" gradientTransform="rotate(110.224 195.986 100.723) scale(292.248 218.917)"><stop offset=".423" stop-color="#004AFF" stop-opacity=".1"/><stop offset=".729" stop-color="#014DB9"/><stop offset=".836" stop-color="#014DB9" stop-opacity=".9"/><stop offset=".955" stop-color="#014DB9" stop-opacity="0"/></radialGradient>
    <radialGradient id="c" cx="0" cy="0" r="1" gradientUnits="userSpaceOnUse" gradientTransform="rotate(-73.643 288.267 158.118) scale(232.668 283.419)"><stop offset=".091" stop-color="#004AFF" stop-opacity=".1"/><stop offset=".56" stop-color="#014DB9"/><stop offset=".749" stop-color="#014DB9" stop-opacity=".99"/><stop offset="1" stop-color="#014DB9" stop-opacity="0"/></radialGradient>
    <radialGradient id="d" cx="0" cy="0" r="1" gradientUnits="userSpaceOnUse" gradientTransform="rotate(134.068 218.587 96.971) scale(563.957 434.374)"><stop offset=".249" stop-color="#23C0FE"/><stop offset=".717" stop-color="#23C0FE"/><stop offset=".995" stop-color="#1C91FF"/></radialGradient>
    <radialGradient id="e" cx="0" cy="0" r="1" gradientUnits="userSpaceOnUse" gradientTransform="rotate(45.909 15.958 162.252) scale(403.457 95.979)"><stop offset=".165" stop-color="#096DD6" stop-opacity="0"/><stop offset=".484" stop-color="#096DD6"/><stop offset=".901" stop-color="#0876DE" stop-opacity=".814"/><stop offset="1" stop-color="#029AFF" stop-opacity="0"/></radialGradient>
    <radialGradient id="f" cx="0" cy="0" r="1" gradientUnits="userSpaceOnUse" gradientTransform="rotate(91.61 73.8 311.224) scale(64.799 58.356)"><stop stop-color="#0068B3"/><stop offset=".93" stop-color="#006CB8" stop-opacity="0"/></radialGradient>
    <linearGradient id="g" x1="114.72" y1="97.523" x2="182.067" y2="383.699" gradientUnits="userSpaceOnUse"><stop stop-color="#92EEFE"/><stop offset=".565" stop-color="#35DDFF"/><stop offset="1" stop-color="#08B1F9"/></linearGradient>
    <radialGradient id="h" cx="0" cy="0" r="1" gradientUnits="userSpaceOnUse" gradientTransform="rotate(69.461 30.73 51.297) scale(99.664 80.499)"><stop stop-color="#CCF9FF" stop-opacity=".93"/><stop offset="1" stop-color="#35DDFF"/></radialGradient>
    <clipPath id="clip0"><path fill="#fff" transform="translate(.685 .714)" d="M0 0h400v400H0z"/></clipPath>
  </defs>
</svg>
